<svg width="520" height="400" viewBox="0 0 420 300" xmlns="http://www.w3.org/2000/svg">
  <defs>
    <linearGradient id="routeGradient" x1="0%" y1="0%" x2="100%" y2="0%">
      <stop offset="0%" stop-color="#CBD5E1"/>
      <stop offset="100%" stop-color="#94A3B8"/>
    </linearGradient>
  </defs>

  <!-- Route -->
  <path id="routePath"
    d="M40 240 C140 120 160 260 260 160 C310 120 350 140 380 70"
    fill="none"
    stroke="url(#routeGradient)"
    stroke-width="5"
    stroke-linecap="round"
    stroke-dasharray="10 10"/>

  <!-- Moving travel dot -->
  <circle r="4" fill="#1E73D8">
    <animateMotion dur="120s" repeatCount="indefinite">
      <mpath href="#routePath"/>
    </animateMotion>
  </circle>

  <!-- Pin 1 -->
  <g transform="translate(40,240)">
    <path d="M0 -16 C9 -16 16 -9 16 0 C16 10 0 22 0 22 C0 22 -16 10 -16 0 C-16 -9 -9 -16 0 -16 Z"
      fill="white" stroke="#1E73D8" stroke-width="4">
      <animate attributeName="stroke" dur="120s" repeatCount="indefinite"
        calcMode="discrete"
        keyTimes="0;0.06;0.93;1"
        values="#A78BA0;#1E73D8;#1E73D8;#A78BA0"/>
    </path>
    <circle cx="0" cy="-1" r="4" fill="#1E73D8">
      <animate attributeName="fill" dur="120s" repeatCount="indefinite"
        calcMode="discrete"
        keyTimes="0;0.06;0.93;1"
        values="#A78BA0;#1E73D8;#1E73D8;#A78BA0"/>
    </circle>
  </g>

  <!-- Pin 2 -->
  <g transform="translate(260,160)">
    <path d="M0 -16 C9 -16 16 -9 16 0 C16 10 0 22 0 22 C0 22 -16 10 -16 0 C-16 -9 -9 -16 0 -16 Z"
      fill="white" stroke="#1E73D8" stroke-width="4">
      <animate attributeName="stroke" dur="120s" repeatCount="indefinite"
        calcMode="discrete"
        keyTimes="0;0.59;0.68;1"
        values="#1E73D8;#A78BA0;#1E73D8;#1E73D8"/>
    </path>
    <circle cx="0" cy="-1" r="4" fill="#1E73D8">
      <animate attributeName="fill" dur="120s" repeatCount="indefinite"
        calcMode="discrete"
        keyTimes="0;0.59;0.68;1"
        values="#1E73D8;#A78BA0;#1E73D8;#1E73D8"/>
    </circle>
  </g>

  <!-- Pin 3 -->
  <g transform="translate(380,70)">
    <path d="M0 -16 C9 -16 16 -9 16 0 C16 10 0 22 0 22 C0 22 -16 10 -16 0 C-16 -9 -9 -16 0 -16 Z"
      fill="white" stroke="#1E73D8" stroke-width="4">
      <animate attributeName="stroke" dur="120s" repeatCount="indefinite"
        calcMode="discrete"
        keyTimes="0;0.93;1"
        values="#1E73D8;#A78BA0;#A78BA0"/>
    </path>
    <circle cx="0" cy="-1" r="4" fill="#1E73D8">
      <animate attributeName="fill" dur="120s" repeatCount="indefinite"
        calcMode="discrete"
        keyTimes="0;0.93;1"
        values="#1E73D8;#A78BA0;#A78BA0"/>
    </circle>
  </g>

  <!-- Sparkle 1 -->
  <g>
    <path d="M170 48 C186 40 202 52 198 72 
            C194 88 176 96 160 88 
            C144 80 144 60 160 48 Z"
          fill="#1E73D8" opacity="0.07"/>
    <animateTransform attributeName="transform"
      type="scale"
      values="1;1.06;1"
      dur="28s"
      repeatCount="indefinite"
      additive="sum"/>
  </g>

  <!-- Sparkle 2 -->
  <g>
    <path d="M320 210 C334 200 352 210 350 228 
            C348 246 332 256 316 250 
            C300 244 302 222 320 210 Z"
          fill="#1E73D8" opacity="0.06"/>
    <animateTransform attributeName="transform"
      type="scale"
      values="1;1.05;1"
      dur="32s"
      repeatCount="indefinite"
      additive="sum"/>
  </g>

  <!-- Sparkle 3 -->
  <g>
    <path d="M90 132 C106 120 124 130 122 150 
            C120 168 104 178 88 170 
            C72 162 74 142 90 132 Z"
          fill="#1E73D8" opacity="0.05"/>
    <animateTransform attributeName="transform"
      type="scale"
      values="1;1.07;1"
      dur="36s"
      repeatCount="indefinite"
      additive="sum"/>
  </g>

  <!-- Sparkle 4 -->
  <g>
    <path d="M340 88 C356 76 376 84 374 106 
            C372 126 356 138 338 132 
            C320 126 322 102 340 88 Z"
          fill="#1E73D8" opacity="0.06"/>
    <animateTransform attributeName="transform"
      type="scale"
      values="1;1.05;1"
      dur="30s"
      repeatCount="indefinite"
      additive="sum"/>
  </g>
</svg>
