<svg xmlns="http://www.w3.org/2000/svg" fill="currentColor" viewBox="0 0 32 32"><path fill-rule="evenodd" d="M10 3a1 1 0 0 1 1 1v.846h10V4a1 1 0 1 1 2 0v.846h3c1.58 0 3 1.2 3 2.846v18.462C29 27.8 27.58 29 26 29H6c-1.58 0-3-1.2-3-2.846V7.692c0-1.645 1.42-2.846 3-2.846h3V4a1 1 0 0 1 1-1M9 6.846H6c-.63 0-1 .453-1 .846v18.462c0 .393.37.846 1 .846h20c.63 0 1-.453 1-.846V7.692c0-.393-.37-.846-1-.846h-3V8a1 1 0 1 1-2 0V6.846H11V8a1 1 0 1 1-2 0zm-.857 6.583a1 1 0 0 1 1-1h1.714a1 1 0 0 1 0 2H9.143a1 1 0 0 1-1-1m6 0a1 1 0 0 1 1-1h1.714a1 1 0 0 1 0 2h-1.714a1 1 0 0 1-1-1m6 0a1 1 0 0 1 1-1h1.714a1 1 0 0 1 0 2h-1.714a1 1 0 0 1-1-1m-3.135 3.578a1 1 0 0 1 1.414 0l1.831 1.831 1.831-1.83a1 1 0 0 1 1.414 1.413l-1.83 1.831 1.831 1.832a1 1 0 0 1-1.414 1.414l-1.832-1.832-1.832 1.832a1 1 0 0 1-1.414-1.414l1.832-1.832-1.831-1.83a1 1 0 0 1 0-1.415m-8.865 1.564a1 1 0 0 1 1-1h1.714a1 1 0 0 1 0 2H9.143a1 1 0 0 1-1-1" clip-rule="evenodd"></path></svg>