<svg xmlns="http://www.w3.org/2000/svg" width="84" height="32" viewBox="0 0 88 30" fill="none">
<g style="mix-blend-mode:multiply" opacity="0.18">
<path d="M1.03125 29.8601L87.0846 29.51L83.3152 27.7584L6.64734 27.4844L1.03125 29.8601Z" fill="#8F4160"/>
</g>
<path d="M42.4057 0.416016C33.3385 0.416016 21.5948 4.10624 11.0547 10.0201L60.8251 10.0882C60.8251 10.0882 51.4728 0.417601 42.4057 0.417601V0.416016Z" fill="#c93684"/>
<path d="M79.1119 13.271C72.5772 11.7411 60.8287 10.0876 60.8287 10.0876L14.6472 10.0654L11.0583 10.0195C11.0583 10.0195 5.34711 13.4057 3.45132 16.2945C1.55553 19.1833 1.375 20.2666 1.375 20.2666L1.46525 23.4263H85.0162C86.128 23.4263 86.9706 22.4222 86.7774 21.3262L86.562 20.1082C86.562 20.1082 88.6605 15.5042 79.1135 13.2695L79.1119 13.271Z" fill="#c93684"/>
<path d="M41.4272 12.6387H38.0553C37.9644 12.6387 37.8906 12.7124 37.8906 12.8034V13.3767C37.8906 13.4677 37.9644 13.5414 38.0553 13.5414H41.4272C41.5182 13.5414 41.5919 13.4677 41.5919 13.3767V12.8034C41.5919 12.7124 41.5182 12.6387 41.4272 12.6387Z" fill="#30004B"/>
<path d="M85.2398 20.3789C84.6997 20.3789 84.2578 20.8208 84.2578 21.3609C84.2578 21.9009 84.6997 22.3428 85.2398 22.3428H86.9328V20.3789H85.2398Z" fill="#30004B"/>
<path d="M86.7973 18.959H82.5988C82.3945 18.959 82.2266 19.1269 82.2266 19.3312C82.2266 19.5355 82.3945 19.7034 82.5988 19.7034H86.7973V18.959Z" fill="#30004B"/>
<path d="M62.94 23.317H24.4066L23.4531 19.584H63.8934L62.94 23.317Z" fill="#30004B"/>
<path d="M62.731 23.9531H25.1637C25.0517 23.9531 24.9609 24.0439 24.9609 24.1559V24.8622C24.9609 24.9742 25.0517 25.0649 25.1637 25.0649H62.731C62.843 25.0649 62.9338 24.9742 62.9338 24.8622V24.1559C62.9338 24.0439 62.843 23.9531 62.731 23.9531Z" fill="#30004B"/>
<path d="M11.726 23.9531H0.92933C0.817369 23.9531 0.726562 24.0439 0.726562 24.1559V24.8622C0.726562 24.9742 0.817369 25.0649 0.92933 25.0649H11.726C11.8379 25.0649 11.9287 24.9742 11.9287 24.8622V24.1559C11.9287 24.0439 11.8379 23.9531 11.726 23.9531Z" fill="#30004B"/>
<path d="M86.601 23.9531H75.8043C75.6924 23.9531 75.6016 24.0439 75.6016 24.1559V24.8622C75.6016 24.9742 75.6924 25.0649 75.8043 25.0649H86.601C86.7129 25.0649 86.8037 24.9742 86.8037 24.8622V24.1559C86.8037 24.0439 86.7129 23.9531 86.601 23.9531Z" fill="#30004B"/>
<path d="M4.3414 14.7383H9.70407C9.70407 14.7383 8.82989 16.8827 6.04876 17.2803C2.57394 17.776 2.71168 17.3595 2.71168 17.3595L4.3414 14.7383Z" fill="white"/>
<path d="M85.5736 15.1113H80.2109C80.2109 15.1113 81.0852 17.2558 83.8663 17.6533C87.3411 18.149 87.2033 17.7325 87.2033 17.7325L85.5736 15.1113Z" fill="white"/>
<path opacity="0.45" d="M62.0662 14.623H45.7326C45.4186 14.623 45.1641 14.8776 45.1641 15.1916V17.1698C45.1641 17.4838 45.4186 17.7384 45.7326 17.7384H62.0662C62.3803 17.7384 62.6348 17.4838 62.6348 17.1698V15.1916C62.6348 14.8776 62.3803 14.623 62.0662 14.623Z" fill="white"/>
<path opacity="0.45" d="M40.6444 14.625H24.3107C23.9967 14.625 23.7422 14.8796 23.7422 15.1936V17.1717C23.7422 17.4857 23.9967 17.7403 24.3107 17.7403H40.6444C40.9584 17.7403 41.2129 17.4857 41.2129 17.1717V15.1936C41.2129 14.8796 40.9584 14.625 40.6444 14.625Z" fill="white"/>
<path d="M56.9978 9.91797L21.5575 9.77543C20.8464 9.77543 19.0282 9.62021 19.0282 8.48147L19.0234 8.16788C19.0234 5.82071 34.9943 1.57617 42.6076 1.57617C50.2208 1.57617 57.3352 8.48147 57.3352 8.48147C57.3352 8.45771 56.9978 9.88313 56.9978 9.91797Z" fill="white"/>
<path d="M35.6323 2.33594L37.3095 9.79239L36.3307 9.76863L34.7422 2.48797L35.6323 2.33594Z" fill="#c93684"/>
<path d="M56.3984 8.05469V13.1117C57.3471 13.1117 58.1232 12.3357 58.1232 11.387V9.77943C58.1232 8.83074 57.3471 8.05469 56.3984 8.05469Z" fill="#30004B"/>
<path d="M10.202 12.9941H4.86619C4.71575 12.9941 4.59375 13.1161 4.59375 13.2666V14.2121C4.59375 14.3625 4.71575 14.4845 4.86619 14.4845H10.202C10.3524 14.4845 10.4743 14.3625 10.4743 14.2121V13.2666C10.4743 13.1161 10.3524 12.9941 10.202 12.9941Z" fill="#30004B"/>
<path d="M62.9062 23.5705C62.9062 19.9484 65.8426 17.0137 69.4631 17.0137C73.0836 17.0137 76.02 19.95 76.02 23.5705" fill="white"/>
<path d="M74.8766 23.5704C74.8766 24.6584 74.5567 25.672 74.0024 26.5178C73.041 28.0018 71.367 28.9806 69.4665 28.9806C66.4779 28.9806 64.0547 26.5574 64.0547 23.5704C64.0547 22.2368 64.5361 21.0141 65.3391 20.0734C66.329 18.9014 67.8146 18.1602 69.4665 18.1602C72.4551 18.1602 74.8766 20.5834 74.8766 23.5704Z" fill="#024553"/>
<g style="mix-blend-mode:multiply" opacity="0.49">
<path d="M74.0024 26.5186C73.0411 28.0026 71.367 28.9814 69.4665 28.9814C66.4779 28.9814 64.0547 26.5582 64.0547 23.5712C64.0547 22.2377 64.5361 21.015 65.3391 20.0742L68.087 22.1157L71.2577 24.4787L74.0009 26.5202L74.0024 26.5186Z" fill="#024553"/>
</g>
<path d="M71.4728 23.5684C71.4728 24.6786 70.5716 25.5782 69.4629 25.5782C68.3543 25.5782 67.4531 24.6786 67.4531 23.5684C67.4531 22.4582 68.3527 21.5586 69.4629 21.5586C70.5732 21.5586 71.4728 22.4582 71.4728 23.5684Z" fill="white"/>
<path d="M11.7656 23.5705C11.7656 19.9484 14.702 17.0137 18.3226 17.0137C21.9431 17.0137 24.8794 19.95 24.8794 23.5705" fill="white"/>
<path d="M23.8611 23.4278C23.8611 24.5158 23.5411 25.5295 22.9868 26.3752C22.0255 27.8592 20.3515 28.838 18.4509 28.838C15.4623 28.838 13.0391 26.4148 13.0391 23.4278C13.0391 22.0942 13.5206 20.8716 14.3236 19.9308C15.3134 18.7588 16.799 18.0176 18.4509 18.0176C21.4395 18.0176 23.8611 20.4408 23.8611 23.4278Z" fill="#024553"/>
<g style="mix-blend-mode:multiply" opacity="0.49">
<path d="M22.9868 26.3741C22.0255 27.8581 20.3515 28.8369 18.4509 28.8369C15.4623 28.8369 13.0391 26.4137 13.0391 23.4267C13.0391 22.0931 13.5206 20.8705 14.3236 19.9297L17.0714 21.9712L20.2421 24.3342L22.9853 26.3757L22.9868 26.3741Z" fill="#024553"/>
</g>
<path d="M20.4572 23.4239C20.4572 24.5341 19.556 25.4337 18.4474 25.4337C17.3387 25.4337 16.4375 24.5341 16.4375 23.4239C16.4375 22.3137 17.3372 21.4141 18.4474 21.4141C19.5576 21.4141 20.4572 22.3137 20.4572 23.4239Z" fill="white"/>
<path d="M23.8611 23.4297C23.8611 24.5178 23.5411 25.5314 22.9868 26.3772C22.0255 27.8612 20.3515 28.8399 18.4509 28.8399C15.4623 28.8399 13.0391 26.4167 13.0391 23.4297C13.0391 22.0962 13.5206 20.8735 14.3236 19.9327C15.3134 18.7607 16.799 18.0195 18.4509 18.0195C21.4395 18.0195 23.8611 20.4427 23.8611 23.4297Z" fill="#024553"/>
<g style="mix-blend-mode:multiply" opacity="0.49">
<path d="M22.9868 26.378C22.0255 27.862 20.3515 28.8408 18.4509 28.8408C15.4623 28.8408 13.0391 26.4176 13.0391 23.4306C13.0391 22.097 13.5206 20.8744 14.3236 19.9336L17.0714 21.9751L20.2421 24.3381L22.9853 26.3796L22.9868 26.378Z" fill="#024553"/>
</g>
<path d="M20.4572 23.4278C20.4572 24.538 19.556 25.4376 18.4474 25.4376C17.3387 25.4376 16.4375 24.538 16.4375 23.4278C16.4375 22.3176 17.3372 21.418 18.4474 21.418C19.5576 21.418 20.4572 22.3176 20.4572 23.4278Z" fill="white"/>
</svg>