<svg xmlns="http://www.w3.org/2000/svg" viewBox="0 0 100 100" width="200px" height="200px" baseProfile="basic"><circle cx="50" cy="50" r="36.5" fill="#fff5cf"/><path fill="none" stroke="#231f20" stroke-linecap="round" stroke-linejoin="round" stroke-miterlimit="10" d="M67.5,52.5h-27 c-1.657,0-3,1.343-3,3v25c0,1.657,1.343,3,3,3h27c1.657,0,3-1.343,3-3v-25C70.5,53.843,69.157,52.5,67.5,52.5z"/><path fill="none" stroke="#231f20" stroke-linecap="round" stroke-linejoin="round" stroke-miterlimit="10" d="M52.452,31.588 C52.96,31.53,53.476,31.5,54,31.5c7.444,0,13.5,6.056,13.5,13.5v7.5h-6V45c0-3.54-2.465-6.515-5.769-7.298"/><path fill="none" stroke="#231f20" stroke-linecap="round" stroke-linejoin="round" stroke-miterlimit="10" d="M47.992,40.515 C47.055,41.766,46.5,43.32,46.5,45v7.5h-6V45c0-2.896,0.916-5.581,2.474-7.782"/><path fill="none" stroke="#231f20" stroke-linecap="round" stroke-linejoin="round" stroke-miterlimit="10" d="M59.5,65 c0-3.038-2.462-5.5-5.5-5.5s-5.5,2.462-5.5,5.5c0,2.136,1.22,3.984,3,4.895V74c0,1.381,1.119,2.5,2.5,2.5s2.5-1.119,2.5-2.5v-4.105 C58.28,68.984,59.5,67.136,59.5,65z"/><path fill="none" stroke="#231f20" stroke-linecap="round" stroke-linejoin="round" stroke-miterlimit="10" d="M28.508,10.324 c9.066-2.646,16.678-2.993,22.827-1.245c10.932,3.109,12.9,11.097,12.197,14.47"/><path fill="none" stroke="#231f20" stroke-linecap="round" stroke-linejoin="round" stroke-miterlimit="10" d="M56.872,14.471 c0,0,8.659,4.411,6.523,14.898"/><path fill="none" stroke="#231f20" stroke-linecap="round" stroke-linejoin="round" stroke-miterlimit="10" d="M56.424,31.58 c0.508-6.777-10.645-6.022-7.238-2.595c2.339,2.054,4.742,3.409,6.122,7.393c1.442,4.159-3.28,8.725-7.129,4.197 c-4.324-5.086-12.501-5.928-24.078-1.057"/><path fill="none" stroke="#231f20" stroke-linecap="round" stroke-linejoin="round" stroke-miterlimit="10" d="M56.09,18.948 c0,0,9.785,5.511,6.55,15.489"/><line x1="75.891" x2="82.473" y1="48.159" y2="45.777" fill="none" stroke="#231f20" stroke-linecap="round" stroke-linejoin="round" stroke-miterlimit="10"/><line x1="75.6" x2="80.687" y1="52.647" y2="52.833" fill="none" stroke="#231f20" stroke-linecap="round" stroke-linejoin="round" stroke-miterlimit="10"/><line x1="72.795" x2="76.584" y1="44.898" y2="41.498" fill="none" stroke="#231f20" stroke-linecap="round" stroke-linejoin="round" stroke-miterlimit="10"/></svg>