<svg xmlns="http://www.w3.org/2000/svg" viewBox="0 0 24 24" fill="none" xmlns:xlink="http://www.w3.org/1999/xlink">
<path d="M22 5H8L2 12L8 19H22V5Z" stroke-linecap="square"></path>
<path d="M9.125 12H9M9.25 12C9.25 12.1381 9.13807 12.25 9 12.25C8.86193 12.25 8.75 12.1381 8.75 12C8.75 11.8619 8.86193 11.75 9 11.75C9.13807 11.75 9.25 11.8619 9.25 12Z" stroke-linecap="round"></path>
<path d="M13.125 12H13M13.25 12C13.25 12.1381 13.1381 12.25 13 12.25C12.8619 12.25 12.75 12.1381 12.75 12C12.75 11.8619 12.8619 11.75 13 11.75C13.1381 11.75 13.25 11.8619 13.25 12Z" stroke-linecap="round"></path>
<path d="M17.125 12H17M17.25 12C17.25 12.1381 17.1381 12.25 17 12.25C16.8619 12.25 16.75 12.1381 16.75 12C16.75 11.8619 16.8619 11.75 17 11.75C17.1381 11.75 17.25 11.8619 17.25 12Z" stroke-linecap="round"></path>
</svg>
