<svg width="1em" height="1em" viewBox="0 0 24 24" fill="none" xmlns="http://www.w3.org/2000/svg" role="img" aria-label="initial icon"><path d="M18.7059 13.1764C19.4206 13.1764 20 12.597 20 11.8822C20 11.1675 19.4206 10.5881 18.7059 10.5881L13.1764 10.5881V5.29412C13.1764 4.5794 12.597 4 11.8823 4C11.1676 4 10.5882 4.5794 10.5882 5.29412L10.5882 10.5881L5.29412 10.5881C4.5794 10.5881 4 11.1675 4 11.8822C4 12.597 4.5794 13.1764 5.29412 13.1764L10.5882 13.1764L10.5882 18.7059C10.5882 19.4206 11.1676 20 11.8823 20C12.597 20 13.1764 19.4206 13.1764 18.7059L13.1764 13.1764L18.7059 13.1764Z" fill="currentColor"></path></svg>