<svg width="1em" height="1em" viewBox="0 0 24 24" fill="none" xmlns="http://www.w3.org/2000/svg" role="img" aria-label="flame icon" class=""><path fill-rule="evenodd" clip-rule="evenodd" d="M10.9138 1.58429L10.9131 1.58527C9.66343 3.50205 9.1493 4.99655 9.11552 6.22634C9.08143 7.46765 9.53764 8.39951 10.1402 9.18113C10.4391 9.56879 10.7756 9.92171 11.1041 10.2556C11.1678 10.3203 11.231 10.3842 11.2936 10.4474C11.5575 10.7139 11.8108 10.9698 12.0415 11.2328C12.6094 11.8806 12.996 12.5243 12.996 13.3385C12.996 14.6639 11.9661 15.723 10.7157 15.723L10.6852 15.7228C9.41117 15.705 8.43374 14.6261 8.43374 13.2967V9.72038C8.43374 8.94085 7.81737 8.4228 7.1739 8.4228C6.84999 8.4228 6.52263 8.55316 6.26789 8.83236C5.15673 10.0526 4 12.1321 4 14.6393C4 19.2585 7.57934 23 12 23C16.4198 23 20 19.2581 20 14.677C20 10.9971 18.2366 8.90741 16.521 7.22091C16.3019 7.00561 16.0857 6.7986 15.8748 6.59669C15.2529 6.00137 14.6773 5.4504 14.2138 4.8623C13.6032 4.08753 13.2169 3.28184 13.2169 2.29089C13.2169 1.49593 12.5974 1 11.9622 1C11.5691 1 11.1736 1.18912 10.9138 1.58429ZM11.0616 6.94304C10.8966 6.26569 11.0046 5.39325 11.6714 4.08961C12.2142 5.71783 13.4537 6.91243 14.6032 8.02032L14.6377 8.05358L14.6403 8.05598C16.4031 9.71451 18.1365 11.3907 18.1365 14.677C18.1365 18.2135 15.3741 21.0774 12 21.0774C8.62505 21.0774 5.86345 18.2143 5.86345 14.677C5.86345 13.4939 6.18899 12.4896 6.57028 11.7193V13.2983C6.57028 15.6579 8.39621 17.616 10.712 17.6453L10.7206 17.6451C13.004 17.6056 14.8594 15.7086 14.8594 13.3385C14.8594 11.3453 13.6115 10.0981 12.5988 9.11063C11.8382 8.34078 11.2556 7.73985 11.0616 6.94304Z" ></path></svg>