<svg xmlns="http://www.w3.org/2000/svg" fill="currentColor" viewBox="0 0 42 43"><path d="M12.707 30.64c.835 0 1.596-.458 1.987-1.195l2.717-5.123a2.23 2.23 0 0 0-.06-2.212 2.23 2.23 0 0 0-1.927-1.09H9.99a2.23 2.23 0 0 0-1.927 1.09 2.23 2.23 0 0 0-.06 2.212l2.717 5.124a2.24 2.24 0 0 0 1.987 1.195zm-3.036-7.202a.35.35 0 0 1 .01-.356.35.35 0 0 1 .31-.176h5.433c.178 0 .271.11.31.176.04.065.093.198.01.356l-2.717 5.123a.35.35 0 0 1-.32.192.35.35 0 0 1-.32-.192zM9.347 15.72a3.364 3.364 0 0 0 3.36 3.36 3.365 3.365 0 0 0 3.36-3.36 3.365 3.365 0 0 0-3.36-3.36 3.364 3.364 0 0 0-3.36 3.36m3.36-1.473c.813 0 1.474.661 1.474 1.473s-.661 1.473-1.474 1.473a1.475 1.475 0 0 1-1.474-1.473c0-.812.662-1.473 1.474-1.473M25.933 15.72a3.364 3.364 0 0 0 3.36 3.36 3.364 3.364 0 0 0 3.36-3.36 3.364 3.364 0 0 0-3.36-3.36 3.365 3.365 0 0 0-3.36 3.36m4.834 0a1.475 1.475 0 0 1-2.948 0 1.475 1.475 0 0 1 2.947 0M31.28 22.215a2.24 2.24 0 0 0-1.988-1.196c-.835 0-1.595.458-1.986 1.196l-2.717 5.123a2.23 2.23 0 0 0 .06 2.213 2.23 2.23 0 0 0 1.927 1.089h5.433a2.23 2.23 0 0 0 1.927-1.09 2.23 2.23 0 0 0 .06-2.212zm1.04 6.363a.35.35 0 0 1-.31.175h-5.434a.35.35 0 0 1-.31-.175.35.35 0 0 1-.01-.356l2.717-5.124a.35.35 0 0 1 .32-.192c.08 0 .23.025.32.192l2.716 5.124a.35.35 0 0 1-.01.356M21 8.252a.944.944 0 0 0-.943.943v24.61a.944.944 0 0 0 1.886 0V9.195A.944.944 0 0 0 21 8.252"></path></svg>