<svg xmlns="http://www.w3.org/2000/svg" fill="currentColor" viewBox="0 0 42 43"><path d="M30.508 15.5a4.2 4.2 0 0 0 1.28-3.023 4.23 4.23 0 0 0-4.225-4.225 4.23 4.23 0 0 0-4.225 4.225c0 1.183.49 2.254 1.277 3.022q-.516.255-.992.598l-.154.114a.943.943 0 0 0 1.12 1.518l.15-.11c.824-.601 1.8-.918 2.823-.918a4.804 4.804 0 0 1 4.8 4.798v1.778c0 .31-.253.56-.56.56H26.22a.943.943 0 0 0 0 1.887h5.58a2.45 2.45 0 0 0 2.447-2.447v-1.778a6.69 6.69 0 0 0-3.74-6zm-5.283-3.023a2.34 2.34 0 0 1 2.337-2.338 2.34 2.34 0 0 1 2.338 2.338 2.34 2.34 0 0 1-2.337 2.338 2.34 2.34 0 0 1-2.338-2.338M7.752 30.707v1.55a2.495 2.495 0 0 0 2.492 2.491h12.39a2.495 2.495 0 0 0 2.492-2.492v-1.549c0-3.62-2.225-6.729-5.38-8.032a5.06 5.06 0 0 0 1.761-3.835 5.074 5.074 0 0 0-5.068-5.068 5.073 5.073 0 0 0-5.068 5.068c0 1.531.684 2.905 1.761 3.835-3.155 1.303-5.38 4.412-5.38 8.032m5.506-11.868a3.185 3.185 0 0 1 3.181-3.181 3.185 3.185 0 0 1 3.181 3.181 3.185 3.185 0 0 1-3.18 3.181 3.184 3.184 0 0 1-3.182-3.181m3.181 5.068c3.75 0 6.8 3.05 6.8 6.8v1.55a.606.606 0 0 1-.605.605h-12.39a.606.606 0 0 1-.605-.606v-1.549c0-3.75 3.05-6.8 6.8-6.8"></path></svg>